<?xml version="1.0" encoding="UTF-8"?>
<svg version="1.1" xmlns="http://www.w3.org/2000/svg" width="85" height="106">
<path d="M0 0 C-2.35395772 2.35395772 -4.03233411 2.75775473 -7.1875 3.75 C-15.71943811 6.78357799 -21.09481698 11.81771176 -25 20 C-26.17208882 23.29502881 -27.14544536 26.60957184 -28 30 C-27.34 30 -26.68 30 -26 30 C-25.57589844 30.92941406 -25.15179688 31.85882813 -24.71484375 32.81640625 C-19.65691206 43.60423117 -14.35233006 51.18043699 -3 56 C0.0048024 56.87545077 2.90870786 57.46025058 6 58 C5.505 58.99 5.505 58.99 5 60 C-5.90662962 60.52774014 -13.70236281 58.13596798 -22 51 C-23.4540625 49.9790625 -23.4540625 49.9790625 -24.9375 48.9375 C-28.30001893 44.14845788 -27.9078971 38.71875276 -28 33 C-28.71832909 44.43340468 -26.42236306 53.57568887 -19.7734375 62.9921875 C-15.4726553 67.86135501 -10.00420212 70.73127688 -4 73 C-4 73.33 -4 73.66 -4 74 C-13.38711649 73.78030153 -21.17612194 71.33243825 -27.8125 64.4375 C-34.9488975 55.54652723 -37.9307133 44.25473676 -37 33 C-35.24240016 21.96286881 -31.03103369 12.57818869 -22.1953125 5.47265625 C-15.0883744 0.70519065 -8.46123658 -0.64809472 0 0 Z " fill="#98B981" transform="translate(79,27)"/>
<path d="M0 0 C3.526449 1.98825638 5.5341751 3.13555254 7 7 C9.31 6.34 11.62 5.68 14 5 C13.54663921 9.87362847 12.2910841 12.39042389 9 16 C9.8353125 16.31130859 9.8353125 16.31130859 10.6875 16.62890625 C19.18255923 20.05849942 25.62998633 25.13537883 30.2265625 33.15625 C31.35190458 35.83888364 31.05762118 37.32069301 30 40 C29.4740625 41.6396875 29.4740625 41.6396875 28.9375 43.3125 C28.628125 44.199375 28.31875 45.08625 28 46 C27.34 45.67 26.68 45.34 26 45 C25.359375 43.03125 25.359375 43.03125 24.75 40.5 C22.4252724 32.33424829 18.04783684 25.83675077 11 21 C8.67418246 19.94531455 6.3490205 18.97404328 3.953125 18.08984375 C1.42159544 16.67725025 0.8884305 15.75413455 0 13 C-0.1953125 9.765625 -0.1953125 9.765625 -0.125 6.25 C-0.09792969 4.49429687 -0.09792969 4.49429687 -0.0703125 2.703125 C-0.04710937 1.81109375 -0.02390625 0.9190625 0 0 Z " fill="#EFA75D" transform="translate(15,7)"/>
<path d="M0 0 C0.33 1.32 0.66 2.64 1 4 C1.66 4 2.32 4 3 4 C3.42410156 4.92941406 3.84820312 5.85882813 4.28515625 6.81640625 C9.34308794 17.60423117 14.64766994 25.18043699 26 30 C29.0048024 30.87545077 31.90870786 31.46025058 35 32 C34.505 32.99 34.505 32.99 34 34 C23.09337038 34.52774014 15.29763719 32.13596798 7 25 C6.030625 24.319375 5.06125 23.63875 4.0625 22.9375 C0.69998107 18.14845788 1.0921029 12.71875276 1 7 C0.67 10.3 0.34 13.6 0 17 C-0.33 17 -0.66 17 -1 17 C-1.02709444 14.91673869 -1.04643873 12.83337559 -1.0625 10.75 C-1.07410156 9.58984375 -1.08570313 8.4296875 -1.09765625 7.234375 C-1.01782092 4.59022872 -0.78643778 2.50173909 0 0 Z " fill="#EFB06D" transform="translate(50,53)"/>
<path d="M0 0 C1.99097846 2.98646769 2.94124926 5.59687262 4 9 C4.66 9 5.32 9 6 9 C6 6.03 6 3.06 6 0 C8.32826348 2.32826348 8.75133003 3.94822653 9.75 7.0625 C13.21889323 16.77031841 17.79483429 23.11725993 27 28 C28.65635281 28.69189421 30.32081957 29.36551179 32 30 C32 30.33 32 30.66 32 31 C22.61288351 30.78030153 14.82387806 28.33243825 8.1875 21.4375 C3.38600003 15.45269197 -0.47006752 7.7917252 0 0 Z " fill="#6B9F4B" transform="translate(43,70)"/>
<path d="M0 0 C2.4375 1.5625 2.4375 1.5625 4 4 C4 7.81153499 3.80074051 10.05097421 1.3125 13 C-1.89970645 14.38906225 -3.6936636 14.05521374 -7 13 C-8.9375 11.375 -8.9375 11.375 -10 9 C-9.875 5.375 -9.875 5.375 -9 2 C-5.50875983 -0.32749345 -4.10777749 -0.50299316 0 0 Z " fill="#8CB072" transform="translate(51,21)"/>
<path d="M0 0 C3.526449 1.98825638 5.5341751 3.13555254 7 7 C9.31 6.34 11.62 5.68 14 5 C13.52088889 10.03066666 11.88483955 12.90538903 9 17 C9 17.66 9 18.32 9 19 C6.1875 18.8125 6.1875 18.8125 3 18 C-0.09771435 14.09917452 -0.33567692 11.07733821 -0.1875 6.1875 C-0.16042969 5.02605469 -0.13335937 3.86460938 -0.10546875 2.66796875 C-0.07066406 1.78753906 -0.03585937 0.90710938 0 0 Z " fill="#F1F3EA" transform="translate(15,7)"/>
<path d="M0 0 C0.33 8.91 0.66 17.82 1 27 C-0.32 27.33 -1.64 27.66 -3 28 C-5.94567409 19.60132208 -7.29627402 11.76759173 -5 3 C-2.7 0 -2.7 0 0 0 Z " fill="#5B9636" transform="translate(49,52)"/>
<path d="M0 0 C1.99097846 2.98646769 2.94124926 5.59687262 4 9 C4.66 9 5.32 9 6 9 C6 6.03 6 3.06 6 0 C8.38125464 2.38125464 9.00186241 4.33857567 10.125 7.5 C10.65480469 8.96953125 10.65480469 8.96953125 11.1953125 10.46875 C12 13 12 13 12 15 C11.34 15 10.68 15 10 15 C9.67 14.34 9.34 13.68 9 13 C8.30840599 14.84725052 8.30840599 14.84725052 8 17 C9.72226496 20.24849977 9.72226496 20.24849977 13 21 C13.6875 23.0625 13.6875 23.0625 14 25 C7.49081156 22.19431533 4.28753795 16.12894641 1.625 9.8125 C0.26291521 6.3851403 -0.17032297 3.6881474 0 0 Z " fill="#9ABB84" transform="translate(43,70)"/>
<path d="M0 0 C1.32 0 2.64 0 4 0 C4.1875 2.375 4.1875 2.375 4 5 C3.01 5.66 2.02 6.32 1 7 C1.20625 7.7425 1.4125 8.485 1.625 9.25 C2.04408751 12.32330841 1.61949011 13.42786866 0 16 C0 14.35 0 12.7 0 11 C-2.9266841 12.46334205 -3.28059562 14.77516099 -4.3359375 17.72265625 C-5.33199313 21.13854114 -5.68386761 24.45931726 -6 28 C-6.33 28 -6.66 28 -7 28 C-7.50767617 17.84647656 -5.6372533 8.55307397 0 0 Z " fill="#88B06D" transform="translate(49,41)"/>
<path d="M0 0 C1.1446875 0.3403125 1.1446875 0.3403125 2.3125 0.6875 C2.3125 3.6575 2.3125 6.6275 2.3125 9.6875 C-0.60232778 10.49717438 -2.14863217 10.90595993 -5 9.75 C-5.556875 9.399375 -6.11375 9.04875 -6.6875 8.6875 C-6.09018456 3.31166107 -6.09018456 3.31166107 -4.4375 0.75 C-2.6875 -0.3125 -2.6875 -0.3125 0 0 Z " fill="#69A045" transform="translate(49.6875,24.3125)"/>
<path d="M0 0 C5 3 5 3 7 5 C7.26991906 7.68839385 7.08737357 10.29141936 7 13 C6.34 12.01 5.68 11.02 5 10 C4.67 11.32 4.34 12.64 4 14 C2.68 13.67 1.36 13.34 0 13 C0 8.71 0 4.42 0 0 Z " fill="#9DB88B" transform="translate(15,7)"/>
<path d="M0 0 C0.33 1.32 0.66 2.64 1 4 C1.66 4 2.32 4 3 4 C3.66 6.31 4.32 8.62 5 11 C4.34 11 3.68 11 3 11 C3.2547514 12.31571603 3.52934141 13.62760376 3.8125 14.9375 C3.96332031 15.66839844 4.11414062 16.39929688 4.26953125 17.15234375 C4.51058594 17.76207031 4.75164063 18.37179688 5 19 C5.99 19.33 6.98 19.66 8 20 C7.01 20.99 6.02 21.98 5 23 C2.42380724 21.08684881 2.01604768 20.0983686 1.48828125 16.86328125 C1.43027344 15.69152344 1.37226562 14.51976563 1.3125 13.3125 C1.24675781 12.13300781 1.18101563 10.95351563 1.11328125 9.73828125 C1.07589844 8.83464844 1.03851563 7.93101563 1 7 C0.67 10.3 0.34 13.6 0 17 C-0.33 17 -0.66 17 -1 17 C-1.02709444 14.91673869 -1.04643873 12.83337559 -1.0625 10.75 C-1.07410156 9.58984375 -1.08570313 8.4296875 -1.09765625 7.234375 C-1.01782092 4.59022872 -0.78643778 2.50173909 0 0 Z " fill="#EDA65E" transform="translate(50,53)"/>
<path d="M0 0 C1.75140143 0.45294865 3.50107344 0.91258748 5.25 1.375 C6.71179688 1.75785156 6.71179688 1.75785156 8.203125 2.1484375 C10.65837303 2.89598509 12.75617405 3.77123817 15 5 C13.45763775 6.54236225 12.01543321 6.16936074 9.875 6.1875 C5.56231637 6.15299853 2.06950421 5.38536313 -2 4 C-1.01 3.67 -0.02 3.34 1 3 C0.67 2.01 0.34 1.02 0 0 Z " fill="#EED1B1" transform="translate(70,81)"/>
<path d="M0 0 C6.2049038 0.2757735 10.10160999 1.10640794 15 5 C14.34 5.66 13.68 6.32 13 7 C13 6.34 13 5.68 13 5 C12.34 5 11.68 5 11 5 C11.33 6.32 11.66 7.64 12 9 C10.49460339 8.05016642 8.99579653 7.08988109 7.5 6.125 C6.6646875 5.59132813 5.829375 5.05765625 4.96875 4.5078125 C3.99421875 3.76144531 3.99421875 3.76144531 3 3 C3 2.34 3 1.68 3 1 C2.01 0.67 1.02 0.34 0 0 Z " fill="#EDC496" transform="translate(21,24)"/>
<path d="M0 0 C-2.52475462 2.52475462 -4.73497997 3.04307871 -8.125 4.125 C-9.22070312 4.47820313 -10.31640625 4.83140625 -11.4453125 5.1953125 C-12.28835937 5.46085937 -13.13140625 5.72640625 -14 6 C-14.66 4.68 -15.32 3.36 -16 2 C-10.60539047 -0.27141454 -5.73842251 -0.20413361 0 0 Z " fill="#BCCEB0" transform="translate(79,27)"/>
<path d="M0 0 C0.99 0 1.98 0 3 0 C6.19703098 3.90748231 6.28999491 7.07008655 6 12 C5.01 11.67 4.02 11.34 3 11 C3.33 10.34 3.66 9.68 4 9 C3.01 9 2.02 9 1 9 C0.67 6.03 0.34 3.06 0 0 Z " fill="#F1963D" transform="translate(53,64)"/>
<path d="M0 0 C0.84304687 0.42925781 0.84304687 0.42925781 1.703125 0.8671875 C4.02870923 2.01415931 6.37770201 3.07839794 8.75 4.125 C9.54921875 4.47820312 10.3484375 4.83140625 11.171875 5.1953125 C11.77515625 5.46085937 12.3784375 5.72640625 13 6 C13 6.33 13 6.66 13 7 C2.44191344 6.22095672 2.44191344 6.22095672 -2 4 C-1.01 3.34 -0.02 2.68 1 2 C0.67 1.34 0.34 0.68 0 0 Z " fill="#CBD7BF" transform="translate(62,94)"/>
<path d="M0 0 C-0.4979837 3.73487777 -0.87491756 5.81237635 -3 9 C-3.99 9 -4.98 9 -6 9 C-5.814375 8.38125 -5.62875 7.7625 -5.4375 7.125 C-4.76313824 4.95839822 -4.76313824 4.95839822 -6 3 C-4.60722783 0.21445565 -3.01148006 0 0 0 Z " fill="#92B27D" transform="translate(29,12)"/>
<path d="M0 0 C0.99 0.33 1.98 0.66 3 1 C3.6875 3.0625 3.6875 3.0625 4 5 C3.01 5 2.02 5 1 5 C0.67 5.99 0.34 6.98 0 8 C0.66 8.33 1.32 8.66 2 9 C1.01 10.485 1.01 10.485 0 12 C-1.25664978 9.09399739 -2 7.20395416 -2 4 C-1.34 4 -0.68 4 0 4 C0 2.68 0 1.36 0 0 Z " fill="#EFB579" transform="translate(40,35)"/>
<path d="M0 0 C2 3 2 3 3 6.0625 C3.78621891 9.08055734 3.78621891 9.08055734 6 11 C5.34 12.32 4.68 13.64 4 15 C3.32243118 13.44219668 2.65840543 11.87849904 2 10.3125 C1.62875 9.44238281 1.2575 8.57226562 0.875 7.67578125 C-0.01870488 4.9427998 -0.16449676 2.85299066 0 0 Z " fill="#A7C193" transform="translate(43,70)"/>
<path d="M0 0 C0.99 0 1.98 0 3 0 C3 0.66 3 1.32 3 2 C4.65 2.33 6.3 2.66 8 3 C8 3.66 8 4.32 8 5 C6.02 5 4.04 5 2 5 C1.34 3.35 0.68 1.7 0 0 Z " fill="#ED9A41" transform="translate(63,79)"/>
<path d="M0 0 C0.33 1.32 0.66 2.64 1 4 C1.66 4 2.32 4 3 4 C3 4.66 3 5.32 3 6 C2.01 6.495 2.01 6.495 1 7 C0.53248212 9.35599235 0.53248212 9.35599235 0.375 12.0625 C0.30023438 12.98160156 0.22546875 13.90070313 0.1484375 14.84765625 C0.09945312 15.55792969 0.05046875 16.26820312 0 17 C-0.33 17 -0.66 17 -1 17 C-1.02709444 14.91673869 -1.04643873 12.83337559 -1.0625 10.75 C-1.07410156 9.58984375 -1.08570313 8.4296875 -1.09765625 7.234375 C-1.01782092 4.59022872 -0.78643778 2.50173909 0 0 Z " fill="#E6EDE1" transform="translate(50,53)"/>
<path d="M0 0 C2.97 0.33 5.94 0.66 9 1 C9 1.99 9 2.98 9 4 C6.03 3.505 6.03 3.505 3 3 C3 2.34 3 1.68 3 1 C2.01 0.67 1.02 0.34 0 0 Z " fill="#E5B88A" transform="translate(21,24)"/>
<path d="M0 0 C-0.33 0.99 -0.66 1.98 -1 3 C-3.64 3.33 -6.28 3.66 -9 4 C-8.67 3.01 -8.34 2.02 -8 1 C-5.29120665 -0.35439668 -2.99066732 -0.06501451 0 0 Z " fill="#9EB886" transform="translate(51,21)"/>
<path d="M0 0 C0.66 0.66 1.32 1.32 2 2 C1.01 2.495 1.01 2.495 0 3 C-0.33 3.99 -0.66 4.98 -1 6 C-2.32 6 -3.64 6 -5 6 C-3.63016497 2.83884224 -3.0109362 2.0072908 0 0 Z " fill="#5B9336" transform="translate(60,32)"/>
<path d="M0 0 C1.80330533 3.60661066 2.46599103 6.08393425 3 10 C2.01 10 1.02 10 0 10 C0 6.7 0 3.4 0 0 Z " fill="#5E943C" transform="translate(16,9)"/>
<path d="M0 0 C1.68762851 1.6454378 3.3540349 3.31288577 5 5 C5 5.33 5 5.66 5 6 C3.02 6 1.04 6 -1 6 C-1.33 5.34 -1.66 4.68 -2 4 C-1.34 4 -0.68 4 0 4 C0 2.68 0 1.36 0 0 Z " fill="#91B177" transform="translate(59,91)"/>
<path d="M0 0 C0.66 0 1.32 0 2 0 C2.33 1.65 2.66 3.3 3 5 C2.34 5 1.68 5 1 5 C0.67 5.99 0.34 6.98 0 8 C-0.98120464 4.94736336 -0.98120464 3.05263664 0 0 Z " fill="#DFB385" transform="translate(52,59)"/>
</svg>
